<svg width="50" height="50" viewBox="0 0 50 50" fill="none" xmlns="http://www.w3.org/2000/svg">
<path d="M48.3063 34.4334L48.1813 33.1876C48.099 32.7988 47.9315 32.433 47.6909 32.1167C47.4502 31.8004 47.1424 31.5414 46.7896 31.3584C45.3565 30.891 43.8416 30.7278 42.3417 30.8793C36.4605 30.8793 6.66257 30.7355 6.66257 30.7355C6.66257 30.7355 7.3084 25.9147 7.45423 23.5668C7.45423 22.5688 7.45423 21.4897 7.57923 20.5751C7.70423 19.6584 7.57923 18.4959 7.57923 17.5813C7.57923 15.3168 7.35007 13.073 7.20423 10.8293C10.6499 10.3801 14.1192 10.1366 17.5938 10.1001C20.9605 10.1001 24.3876 10.1001 27.7959 10.2876C33.0126 10.4543 38.1855 10.6209 43.173 10.8709C43.2236 11.7084 43.2236 12.5481 43.173 13.3855C43.173 14.7355 42.9646 16.1063 42.8605 17.5397C42.8605 18.498 42.7563 19.4313 42.7563 20.3668C42.7563 21.3022 42.7563 22.3001 42.8813 23.2751C43.048 25.5188 43.3813 27.723 43.5063 29.9668C43.5035 30.0422 43.5159 30.1174 43.5428 30.1879C43.5697 30.2585 43.6105 30.3229 43.6628 30.3773C43.7151 30.4317 43.7778 30.4751 43.8472 30.5048C43.9166 30.5344 43.9913 30.5499 44.0667 30.5501C44.2179 30.5502 44.3632 30.4916 44.472 30.3867C44.5808 30.2817 44.6447 30.1387 44.6501 29.9876C44.7938 28.0543 44.898 26.123 44.9188 24.1688V14.4438C44.8832 12.9747 44.7439 11.51 44.5021 10.0605C43.9417 8.75009 34.5917 8.68759 30.1021 8.35634C29.0417 8.35634 28.0251 8.23134 26.8813 8.18967C27.0688 7.17092 27.0688 6.23551 27.0688 5.28134C27.0964 4.43001 27.0194 3.57851 26.8396 2.74592L26.3813 1.45634C25.4271 -0.245744 24.3042 -0.164494 23.6605 0.252173C23.2959 0.47509 22.9938 0.791756 22.7876 1.16676C22.5004 1.75451 22.2641 2.36577 22.0813 2.99384L21.7688 5.07301C21.7256 5.76469 21.7256 6.4584 21.7688 7.15009C21.7688 7.48342 21.7688 7.79592 21.873 8.10842H21.2709C16.3126 8.17717 11.373 8.71884 6.51882 9.72717C5.74798 9.87301 5.81048 10.7876 5.49798 17.6647C5.49798 18.6626 5.49798 19.7438 5.39382 20.6376C5.29173 21.5293 5.39382 22.7147 5.39382 23.6293C5.39382 25.9563 5.60215 30.7355 5.62298 30.8168H5.1459C4.3264 30.8304 3.51096 30.9352 2.71465 31.1293C2.48613 31.1911 2.27943 31.3155 2.11783 31.4885C1.95624 31.6615 1.84618 31.8762 1.80007 32.1084C1.64477 33.0507 1.64477 34.012 1.80007 34.9543C1.94382 35.7834 2.3959 36.5251 3.06882 37.0313C3.45423 37.2813 3.89798 37.423 4.35632 37.448H10.4459C10.4459 37.6563 10.2584 37.8438 10.1959 38.0501C9.7584 39.1522 9.42507 40.273 9.05215 41.3751L8.09798 44.5751C7.77923 45.5584 7.57715 46.5772 7.49381 47.6084C7.46478 47.9642 7.51099 48.322 7.62944 48.6587C7.74789 48.9954 7.93593 49.3034 8.18132 49.5626C8.67923 50.0209 9.59382 50.3105 11.0688 49.4376L11.8167 48.8543L12.9605 47.5043C13.7688 46.1779 14.4612 44.7924 15.0376 43.348C15.2042 42.973 15.3084 42.6209 15.4542 42.248L21.4376 42.7272C22.373 42.7272 23.3292 42.8293 24.2834 42.8501H27.0688C29.2917 42.8501 31.5146 42.8501 33.7605 42.7251H33.8646C33.8646 42.8501 33.8647 42.9751 33.9688 43.0793C34.423 44.5001 34.9695 45.8848 35.6084 47.2334C35.9487 47.9084 36.3646 48.532 36.8563 49.1043C37.2021 49.5043 37.6688 49.7813 38.1855 49.8959C38.8521 49.8959 39.7021 49.7918 40.1396 48.3563L40.5355 46.4251L40.3896 44.0563L39.723 40.8959L38.623 37.1355C45.7896 36.9897 47.723 37.1355 48.1396 35.9938C48.2876 35.4876 48.3438 34.9605 48.3063 34.4334ZM23.2021 7.08759C23.2021 6.48551 23.3688 5.90426 23.4938 5.28134L24.0355 3.63967C24.1396 3.34801 24.2855 2.74384 24.4522 2.39176V2.51676L24.8251 3.30842C25.0515 3.98342 25.2042 4.67578 25.2834 5.38551C25.3876 6.27717 25.4063 7.17092 25.448 8.06467H23.1626C23.1539 7.73841 23.1658 7.41193 23.2021 7.08759ZM11.1126 46.1751L10.2376 47.1313L9.86465 47.4438L9.48965 47.6709V47.0668C9.56378 46.3676 9.68207 45.6739 9.84381 44.9897L10.4896 41.748C10.7396 40.6272 10.9667 39.5043 11.2792 38.423C11.2792 38.0688 11.4876 37.7376 11.5917 37.3855H15.6626C14.9959 39.1272 14.241 40.8306 13.398 42.4959C12.7356 43.7814 11.9714 45.0117 11.1126 46.1751ZM27.2167 40.6688C26.2605 40.6688 25.3042 40.5438 24.348 40.5022C23.3917 40.4605 22.4376 40.5022 21.4813 40.5022C19.6313 40.5022 17.8021 40.6688 15.9542 40.8147C16.3709 39.6293 16.7855 38.4647 17.1376 37.3022C21.648 37.3022 26.1792 37.3022 30.6855 37.1355H32.5147C32.8272 38.548 33.1605 39.9418 33.5542 41.2918C31.4355 41.0626 29.3355 40.8355 27.2167 40.6688ZM37.6063 38.5876C37.773 39.4209 37.9396 40.2501 38.0646 41.0813L38.4376 44.0938V46.173L38.1251 47.4188C37.9008 47.0082 37.6998 46.5853 37.523 46.1522C36.6896 44.5911 35.9765 42.9772 35.3834 41.3105C34.8248 39.9098 34.3189 38.4887 33.8667 37.0501H37.398L37.6063 38.5876ZM46.9771 35.3251C46.9856 35.4012 46.9856 35.4781 46.9771 35.5543H33.9688C27.3834 35.5126 20.8376 35.3251 14.1667 35.3251H4.33548C4.19828 35.1902 4.09044 35.0284 4.01873 34.8499C3.94703 34.6713 3.91301 34.4799 3.91882 34.2876C3.87786 33.9276 3.87786 33.5642 3.91882 33.2043L5.16882 33.0813C6.97507 33.0813 8.76257 33.2063 10.5688 33.248H12.9605C17.8355 33.0397 22.739 32.8869 27.6709 32.7897C32.6015 32.6925 37.5056 32.623 42.3834 32.5813C43.5095 32.4633 44.6448 32.4633 45.7709 32.5813C46.0465 32.6378 46.3003 32.7716 46.5025 32.9672C46.7047 33.1628 46.847 33.4119 46.9126 33.6855V34.598C46.9501 34.8397 46.9709 35.0827 46.9751 35.3272" fill="#1C6EA4"/>
<path d="M20.8334 24.1063C21.0807 24.7266 21.5341 25.2428 22.1172 25.5683C22.7003 25.8938 23.3776 26.0088 24.0354 25.8938C25.418 25.8136 26.7501 25.3458 27.8792 24.5438C30.1438 22.9646 31.7438 20.2001 33.6979 18.4542C34.2936 17.9005 35.0022 17.4826 35.775 17.2292C36.1098 17.0847 36.4753 17.0262 36.8384 17.0589C37.2015 17.0917 37.5507 17.2147 37.8542 17.4167C37.9561 17.4924 38.0781 17.5363 38.2049 17.543C38.3317 17.5497 38.4576 17.5189 38.567 17.4545C38.6764 17.39 38.7643 17.2947 38.8198 17.1806C38.8754 17.0664 38.896 16.9384 38.8792 16.8126C38.86 16.6418 38.7757 16.4851 38.6438 16.3751C38.2772 16.0962 37.8583 15.8939 37.4121 15.7801C36.9658 15.6663 36.5012 15.6433 36.0459 15.7126C34.8093 15.9116 33.6476 16.4349 32.6792 17.2292C30.85 18.7042 29.3542 20.7813 27.5063 22.1959C26.4979 23.1126 25.2063 23.6542 23.8479 23.7334C23.7011 23.7602 23.5502 23.7545 23.4059 23.7167C23.2615 23.6788 23.1272 23.6098 23.0124 23.5145C22.8976 23.4192 22.8051 23.2998 22.7414 23.1649C22.6777 23.0299 22.6444 22.8826 22.6438 22.7334C22.6729 21.0563 22.8313 19.3813 23.1209 17.7271C23.1463 17.2665 23.0805 16.8053 22.9271 16.3702C22.7737 15.9351 22.5358 15.5346 22.2271 15.1917C21.8535 14.8435 21.3807 14.6203 20.8745 14.5531C20.3682 14.4859 19.8536 14.578 19.4021 14.8167L17.7396 15.6292C17.3021 15.8792 16.8646 16.1501 16.4709 16.4188C16.06 16.7168 15.6651 17.0359 15.2875 17.3751C14.8 17.8237 14.3493 18.3084 13.9354 18.8292C13.5188 19.3292 13.1243 19.8487 12.7521 20.3876C12.6947 20.5091 12.6811 20.6467 12.7135 20.7771C12.7458 20.9075 12.8223 21.0228 12.9298 21.1034C13.0373 21.1839 13.1694 21.2249 13.3037 21.2194C13.4379 21.2139 13.5662 21.1621 13.6667 21.073C14.0625 20.573 14.4563 20.1167 14.8709 19.6605C15.2875 19.2188 15.7313 18.8028 16.2021 18.4126C16.5452 18.1473 16.9049 17.9049 17.2813 17.6855C17.6646 17.4563 18.0597 17.2487 18.4667 17.0626L19.9834 16.4376C20.4 16.3126 20.7104 16.2917 20.8979 16.4376C21.1125 16.8021 21.1854 17.2292 21.1063 17.6459C21.1063 18.4334 20.6688 19.723 20.5021 21.1146C20.3604 22.123 20.475 23.1521 20.8354 24.1063" fill="#1C6EA4"/>
</svg>
