<svg width="50" height="50" viewBox="0 0 50 50" fill="none" xmlns="http://www.w3.org/2000/svg">
<path d="M9.375 42.1875C8.96228 42.1821 8.56798 42.0158 8.27611 41.7239C7.98425 41.432 7.8179 41.0377 7.8125 40.625V9.375C7.8125 8.9606 7.97712 8.56317 8.27015 8.27015C8.56317 7.97712 8.9606 7.8125 9.375 7.8125C9.7894 7.8125 10.1868 7.97712 10.4799 8.27015C10.7729 8.56317 10.9375 8.9606 10.9375 9.375V40.625C10.9321 41.0377 10.7658 41.432 10.4739 41.7239C10.182 42.0158 9.78772 42.1821 9.375 42.1875Z" fill="#1C6EA4"/>
<path d="M40.625 42.1873H9.375C8.9606 42.1873 8.56317 42.0226 8.27015 41.7296C7.97712 41.4366 7.8125 41.0392 7.8125 40.6248C7.8125 40.2104 7.97712 39.8129 8.27015 39.5199C8.56317 39.2269 8.9606 39.0623 9.375 39.0623H40.625C41.0394 39.0623 41.4368 39.2269 41.7299 39.5199C42.0229 39.8129 42.1875 40.2104 42.1875 40.6248C42.1875 41.0392 42.0229 41.4366 41.7299 41.7296C41.4368 42.0226 41.0394 42.1873 40.625 42.1873ZM29.1667 30.7289C28.9614 30.7299 28.758 30.6899 28.5683 30.6111C28.3787 30.5324 28.2068 30.4167 28.0625 30.2706L22.9167 25.1248L17.7708 30.2706C17.4746 30.5466 17.0829 30.6969 16.6781 30.6897C16.2733 30.6826 15.8871 30.5186 15.6008 30.2323C15.3145 29.946 15.1505 29.5598 15.1434 29.155C15.1362 28.7502 15.2865 28.3585 15.5625 28.0623L21.8125 21.8123C22.1055 21.5197 22.5026 21.3553 22.9167 21.3553C23.3307 21.3553 23.7279 21.5197 24.0208 21.8123L29.1667 26.9581L36.3958 19.7289C36.692 19.4529 37.0838 19.3027 37.4886 19.3098C37.8934 19.317 38.2796 19.4809 38.5659 19.7672C38.8522 20.0535 39.0161 20.4397 39.0233 20.8445C39.0304 21.2493 38.8802 21.6411 38.6042 21.9373L30.2708 30.2706C30.1266 30.4167 29.9546 30.5324 29.765 30.6111C29.5754 30.6899 29.372 30.7299 29.1667 30.7289Z" fill="#1C6EA4"/>
<path d="M38.5417 28.8332C38.1289 28.8278 37.7346 28.6614 37.4428 28.3696C37.1509 28.0777 36.9846 27.6834 36.9792 27.2707V21.354H31.25C30.8356 21.354 30.4382 21.1894 30.1451 20.8964C29.8521 20.6033 29.6875 20.2059 29.6875 19.7915C29.6875 19.3771 29.8521 18.9797 30.1451 18.6867C30.4382 18.3936 30.8356 18.229 31.25 18.229H38.5417C38.9544 18.2344 39.3487 18.4008 39.6406 18.6926C39.9324 18.9845 40.0988 19.3788 40.1042 19.7915V27.2707C40.0988 27.6834 39.9324 28.0777 39.6406 28.3696C39.3487 28.6614 38.9544 28.8278 38.5417 28.8332Z" fill="#1C6EA4"/>
</svg>
