<svg width="40" height="40" viewBox="0 0 40 40" fill="none" xmlns="http://www.w3.org/2000/svg">
<path d="M36.4166 9.33333H31.9347C30.8982 9.33333 30.1667 8.28647 30.1667 7.25C30.1667 3.79822 27.3684 1 23.9167 1C20.4649 1 17.6667 3.79822 17.6667 7.25C17.6667 8.28647 16.9351 9.33333 15.8986 9.33333H11.4167C10.2661 9.33333 9.33333 10.2661 9.33333 11.4167V15.8986C9.33333 16.9351 8.28648 17.6667 7.25 17.6667C3.79822 17.6667 1 20.4649 1 23.9167C1 27.3684 3.79822 30.1667 7.25 30.1667C8.28648 30.1667 9.33333 30.8982 9.33333 31.9347V36.4167C9.33333 37.5673 10.2661 38.5 11.4167 38.5L36.4167 38.5001C37.5673 38.5001 38.5 37.5672 38.5 36.4166V31.9347C38.5 30.8982 37.4531 30.1667 36.4167 30.1667C32.9649 30.1667 30.1667 27.3684 30.1667 23.9167C30.1667 20.4649 32.9649 17.6667 36.4167 17.6667C37.4531 17.6667 38.5 16.9351 38.5 15.8986L38.5001 11.4167C38.5001 10.2661 37.5672 9.33333 36.4166 9.33333Z" stroke="#1C6EA4" stroke-width="2" stroke-linecap="round" stroke-linejoin="round"/>
</svg>
