<svg width="50" height="50" viewBox="0 0 50 50" fill="none" xmlns="http://www.w3.org/2000/svg">
<path d="M17.9501 41.6665C17.0237 41.6665 16.2313 41.3366 15.573 40.6769C14.9146 40.0172 14.5848 39.2262 14.5834 38.304V33.3331H10.8167C9.89173 33.3331 9.10007 33.0033 8.44173 32.3436C7.7834 31.6838 7.45354 30.8922 7.45215 29.9686V22.1144C7.45215 20.9338 7.85284 19.9449 8.65423 19.1477C9.45562 18.3477 10.4438 17.9477 11.6188 17.9477H38.3813C39.5619 17.9477 40.5515 18.3477 41.3501 19.1477C42.1487 19.9477 42.548 20.9366 42.548 22.1144V29.9686C42.548 30.8936 42.2188 31.6852 41.5605 32.3436C40.9021 33.0019 40.1098 33.3317 39.1834 33.3331H35.4167V38.3019C35.4167 39.2269 35.0869 40.0186 34.4271 40.6769C33.7674 41.3352 32.9758 41.6651 32.0521 41.6665H17.9501ZM10.8167 31.2498H14.5834C14.6376 30.3706 14.9862 29.6165 15.6292 28.9873C16.2723 28.3595 17.0459 28.0456 17.9501 28.0456H32.0521C32.9549 28.0456 33.7278 28.3602 34.3709 28.9894C35.014 29.6172 35.3626 30.3706 35.4167 31.2498H39.1834C39.557 31.2498 39.864 31.1297 40.1042 30.8894C40.3445 30.6491 40.4646 30.3422 40.4646 29.9686V22.1144C40.4646 21.5255 40.2653 21.0311 39.8667 20.6311C39.4681 20.2311 38.973 20.0311 38.3813 20.0311H11.6188C11.0285 20.0311 10.5341 20.2311 10.1355 20.6311C9.73687 21.0311 9.53687 21.5262 9.53548 22.1165V29.9686C9.53548 30.3422 9.65562 30.6491 9.8959 30.8894C10.1362 31.1297 10.4431 31.2498 10.8167 31.2498ZM33.3334 17.9498V12.979C33.3334 12.604 33.2133 12.297 32.973 12.0581C32.7327 11.8179 32.4258 11.6977 32.0521 11.6977H17.948C17.5744 11.6977 17.2674 11.8179 17.0271 12.0581C16.7869 12.2984 16.6667 12.6054 16.6667 12.979V17.9477H14.5834V12.979C14.5834 12.054 14.9133 11.2616 15.573 10.6019C16.2313 9.94217 17.023 9.6123 17.948 9.6123H32.0521C32.9771 9.6123 33.7688 9.94217 34.4271 10.6019C35.0869 11.2616 35.4167 12.0533 35.4167 12.9769V17.9477L33.3334 17.9498ZM36.7001 25.2415C37.2903 25.2415 37.7848 25.0415 38.1834 24.6415C38.582 24.2415 38.782 23.747 38.7834 23.1581C38.7848 22.5692 38.5848 22.0741 38.1834 21.6727C37.782 21.2713 37.2876 21.0713 36.7001 21.0727C36.1126 21.0741 35.6174 21.2741 35.2146 21.6727C34.8119 22.0713 34.6126 22.5665 34.6167 23.1581C34.6209 23.7498 34.8202 24.2442 35.2146 24.6415C35.6091 25.0387 36.1042 25.2387 36.7001 25.2415ZM33.3334 38.2998V31.4102C33.3334 31.0352 33.2133 30.7276 32.973 30.4873C32.7327 30.247 32.4258 30.1269 32.0521 30.1269H17.948C17.5744 30.1269 17.2674 30.247 17.0271 30.4873C16.7869 30.729 16.6667 31.0366 16.6667 31.4102V38.3019C16.6667 38.6755 16.7869 38.9824 17.0271 39.2227C17.2674 39.463 17.5751 39.5831 17.9501 39.5831H32.0521C32.4258 39.5831 32.7327 39.463 32.973 39.2227C33.2133 38.9824 33.3334 38.6748 33.3334 38.2998ZM10.8167 20.0331H9.53548H40.4646H10.8167Z" fill="#1C6EA4"/>
</svg>
