<svg width="40" height="41" viewBox="0 0 40 41" fill="none" xmlns="http://www.w3.org/2000/svg">
<path d="M8.29191 39.1129H37.3973C38.0064 39.1129 38.5007 38.6193 38.5007 38.0102L38.5002 25.6322M11.3762 38.4281L37.7547 26.1276C38.3067 25.8702 38.5454 25.2138 38.288 24.6618L33.0569 13.4445C32.7995 12.8925 32.1431 12.6528 31.5911 12.9102L19.8133 18.4027M15.3374 33.7062C14.2951 37.596 10.2968 39.9044 6.40694 38.8622C2.51708 37.8199 0.208194 33.822 1.25048 29.9322L8.78349 1.81836C8.94115 1.22998 9.54541 0.880678 10.1338 1.03833L22.0899 4.24143C22.6783 4.39908 23.0275 5.0037 22.8699 5.59208L15.3374 33.7062ZM8.29191 32.0297H8.29608L8.29598 32.0339L8.29191 32.0338V32.0297Z" stroke="#1C6EA4" stroke-width="2" stroke-linecap="round" stroke-linejoin="round"/>
</svg>
